<?xml version="1.0" encoding="utf-8"?>
<!-- Generator: Adobe Illustrator 16.0.0, SVG Export Plug-In . SVG Version: 6.00 Build 0)  -->
<!DOCTYPE svg PUBLIC "-//W3C//DTD SVG 1.1//EN" "http://www.w3.org/Graphics/SVG/1.1/DTD/svg11.dtd">
<svg version="1.1" id="Layer_1" xmlns="http://www.w3.org/2000/svg" xmlns:xlink="http://www.w3.org/1999/xlink" x="0px" y="0px"
	 width="512px" height="512px" viewBox="0 0 512 512" enable-background="new 0 0 512 512" xml:space="preserve">
<path fill-rule="evenodd" clip-rule="evenodd" fill="#231F20" d="M383.984,176.01c0,8.835-7.156,16-16,16
	c-8.812,0-15.983-7.164-15.983-16c0-8.843,7.172-16.007,15.983-16.007C376.828,160.003,383.984,167.167,383.984,176.01
	L383.984,176.01z M383.984,512H128.007C92.656,512,64,483.337,64,448.01V64.014c0-35.351,28.656-63.99,64.007-63.99H255.99V0
	l0.016,0.023c17.683,0,31.997,14.32,31.997,31.983v95.997c0,17.679,14.312,31.999,31.999,31.999c8.844,0,16.001,7.164,16.001,16.007
	c0,8.835-7.157,16-16.001,16c-35.343,0-64.011-28.663-64.011-64.006v-63.99V32.007h-31.984h-95.999
	C110.327,32.007,96,46.35,96,64.014V448.01c0,17.663,14.328,31.983,32.007,31.983h255.978c17.688,0,32.016-14.32,32.016-31.983V240
	V192.01v-25.366l-98.124-98.138c-6.266-6.242-6.266-16.375,0-22.617c6.25-6.242,16.376-6.242,22.625,0l102.624,102.614
	c0.016,0.016,0.047,0.047,0.062,0.062c2.953,2.906,4.812,6.96,4.812,11.437v32.007V240V448.01C448,483.337,419.344,512,383.984,512
	L383.984,512z"/>
</svg>
