<?xml version="1.0" encoding="UTF-8" standalone="no"?>
<!DOCTYPE svg PUBLIC "-//W3C//DTD SVG 1.1//EN" "http://www.w3.org/Graphics/SVG/1.1/DTD/svg11.dtd">
<svg width="100%" height="100%" viewBox="0 0 700 700" version="1.1" xmlns="http://www.w3.org/2000/svg" xmlns:xlink="http://www.w3.org/1999/xlink" xml:space="preserve" xmlns:serif="http://www.serif.com/" style="fill-rule:evenodd;clip-rule:evenodd;stroke-linejoin:round;stroke-miterlimit:2;">
    <g transform="matrix(1.50001,0,0,1.50001,-174.978,-70.3784)">
        <path d="M471.63,245.84C471.568,229.402 465.896,213.481 455.556,200.703C459.068,186.098 457.97,170.762 452.423,156.801C451.329,154.113 449.087,152.059 446.318,151.199C442.396,149.856 427.556,147.336 397.318,166.933L397.318,166.937C384.31,163.504 370.896,161.883 357.447,162.121C343.978,161.879 330.541,163.5 317.517,166.937C286.494,146.89 270.365,150.136 267.119,151.089C264.334,151.984 262.095,154.082 261.013,156.8C255.451,170.714 254.314,186.007 257.767,200.593C247.087,213.304 241.396,229.464 241.751,246.062C241.751,308 277.196,326.703 309.677,333.312C308.009,337.39 306.861,341.66 306.263,346.023C306.204,346.488 306.204,346.961 306.263,347.426L306.263,364.559C276.697,367.023 270.368,349.719 269.751,347.758L269.751,347.761C269.606,347.304 269.438,346.855 269.243,346.414C263.532,334.766 253.481,325.816 241.243,321.496C236.11,319.781 230.555,322.55 228.841,327.683C227.126,332.816 229.896,338.371 235.029,340.089C241.81,342.538 247.467,347.374 250.935,353.694C254.857,366.405 270.873,386.51 306.15,384.268L306.15,400.397C306.15,405.811 310.536,410.198 315.95,410.198C321.361,410.198 325.751,405.811 325.751,400.397L325.751,348.151C326.493,342.444 328.978,337.108 332.861,332.862C335.642,330.261 336.65,326.28 335.447,322.667C334.243,319.058 331.044,316.476 327.263,316.062C293.103,312.085 261.521,300.832 261.521,245.671L261.517,245.671C261.06,232.21 266.259,219.171 275.853,209.718C278.455,206.921 279.314,202.925 278.095,199.304C274.794,189.718 274.58,179.339 277.478,169.624C289.501,172.339 300.794,177.632 310.572,185.136C313.119,186.819 316.295,187.253 319.197,186.312C331.642,182.522 344.611,180.765 357.615,181.105C370.595,180.765 383.549,182.523 395.974,186.312C398.876,187.261 402.056,186.827 404.599,185.136C414.017,177.917 424.798,172.679 436.294,169.734C439.15,179.558 438.896,190.023 435.564,199.695C434.45,202.98 435.177,206.613 437.47,209.214C446.739,219.113 451.99,232.112 452.197,245.671C452.197,300.718 418.99,312.144 386.455,316.062C382.467,316.508 379.158,319.347 378.119,323.222C377.08,327.097 378.521,331.211 381.752,333.593C385.224,336.226 389.256,343.616 389.256,355.991L389.256,400.343C389.256,405.758 393.642,410.144 399.053,410.144C404.467,410.144 408.853,405.758 408.853,400.343L408.853,355.991C408.955,348.191 407.529,340.448 404.654,333.198C430.974,327.601 471.631,310.296 471.631,245.839L471.63,245.84Z" style="fill-rule:nonzero;"/>
    </g>
</svg>
