<?xml version="1.0" encoding="UTF-8" standalone="no"?>
<!DOCTYPE svg PUBLIC "-//W3C//DTD SVG 1.1//EN" "http://www.w3.org/Graphics/SVG/1.1/DTD/svg11.dtd">
<svg width="100%" height="100%" viewBox="0 0 700 700" version="1.1" xmlns="http://www.w3.org/2000/svg" xmlns:xlink="http://www.w3.org/1999/xlink" xml:space="preserve" xmlns:serif="http://www.serif.com/" style="fill-rule:evenodd;clip-rule:evenodd;stroke-linejoin:round;stroke-miterlimit:2;">
    <g>
        <g transform="matrix(1,0,0,1,0,70)">
            <path d="M524.12,279.12L448.995,354.245L424.245,329.495L499.37,254.37C533.542,220.198 533.542,164.8 499.37,130.63C465.198,96.46 409.8,96.458 375.63,130.63L300.505,205.755L275.755,181.005L350.88,105.88C398.72,58.04 476.28,58.04 524.12,105.88C571.96,153.72 571.96,231.28 524.12,279.12Z" style="fill-rule:nonzero;"/>
        </g>
        <g transform="matrix(1,0,0,1,0,70)">
            <path d="M200.63,305.63L275.755,230.505L251.005,205.755L175.88,280.88C128.04,328.72 128.04,406.28 175.88,454.12C223.72,501.96 301.28,501.96 349.12,454.12L424.245,378.995L399.495,354.245L324.37,429.37C290.198,463.542 234.8,463.542 200.63,429.37C166.46,395.198 166.458,339.8 200.63,305.63Z" style="fill-rule:nonzero;"/>
        </g>
        <g transform="matrix(1,0,0,1,0,70)">
            <path d="M398.88,206.38L276.38,328.88L301.13,353.63L423.63,231.13L398.88,206.38Z" style="fill-rule:nonzero;"/>
        </g>
    </g>
</svg>
