<?xml version="1.0" encoding="UTF-8" standalone="no"?><!DOCTYPE svg PUBLIC "-//W3C//DTD SVG 1.1//EN" "http://www.w3.org/Graphics/SVG/1.1/DTD/svg11.dtd"><svg width="100%" height="100%" viewBox="0 0 2685 2685" version="1.1" xmlns="http://www.w3.org/2000/svg" xmlns:xlink="http://www.w3.org/1999/xlink" xml:space="preserve" xmlns:serif="http://www.serif.com/" style="fill-rule:evenodd;clip-rule:evenodd;stroke-linejoin:round;stroke-miterlimit:2;"><g><path d="M2669.58,1251.15c-2.899,-45.521 -10.354,-90.628 -16.153,-135.735c-8.283,-67.454 -27.336,-132.838 -48.873,-196.981c-28.992,-86.904 -66.682,-169.669 -112.656,-249.123c-51.358,-88.973 -114.313,-168.841 -183.066,-244.572c-28.164,-30.623 -59.227,-58.763 -90.29,-86.489c-23.608,-21.105 -48.459,-41.797 -74.552,-60.005c-44.731,-31.037 -90.705,-60.005 -136.679,-89.386c-63.369,-40.555 -131.708,-71.179 -202.118,-96.836c-84.906,-31.037 -171.469,-56.694 -262.174,-66.626c-45.559,-4.966 -90.704,-14.07 -135.849,-15.725c-91.119,-2.897 -182.238,-2.483 -272.529,15.725c-39.761,7.863 -80.35,11.174 -119.283,22.347c-60.055,17.381 -118.454,40.555 -177.681,60.418c-72.895,24.002 -139.578,61.661 -203.775,102.216c-90.291,56.694 -175.197,121.664 -247.678,200.705c-24.022,26.071 -51.358,49.659 -72.481,77.799c-38.932,52.142 -75.38,106.354 -111.413,160.565c-53.429,80.282 -91.533,168.427 -123.425,259.055c-25.265,72.833 -45.974,146.908 -53.843,223.88c-5.384,50.073 -14.082,100.146 -15.739,150.219c-3.313,89.8 1.657,179.186 14.911,268.159c9.526,62.488 22.365,123.734 41.003,183.739c30.235,100.145 72.067,195.325 125.496,285.126c50.943,86.076 110.585,165.53 178.924,237.95c57.985,61.246 120.94,116.285 189.693,165.944c109.343,79.041 226.969,141.115 354.949,182.497c90.291,28.968 182.652,50.901 277.913,59.177c58.399,4.966 116.383,13.243 175.197,8.277c45.145,-4.138 90.29,-5.38 135.021,-8.691c23.194,-1.655 46.388,-4.138 68.753,-8.69c39.761,-8.276 79.522,-17.794 118.455,-28.554c40.589,-11.173 80.764,-24.416 123.425,-36.83c49.287,-21.106 96.917,-40.555 143.305,-63.316c30.649,-14.898 58.399,-35.175 87.805,-52.556c69.582,-40.555 133.365,-89.8 192.178,-144.839c38.519,-36.003 74.966,-74.488 109.757,-113.802c31.063,-35.175 59.227,-72.833 87.391,-110.491c45.974,-61.661 82.836,-128.7 114.313,-198.637c24.022,-54.211 43.903,-110.078 63.783,-165.944c36.862,-103.87 52.186,-212.707 61.298,-321.543c4.97,-56.28 0,-112.561 -3.313,-168.427Zm-62.541,171.324c-0.828,39.727 -9.112,79.868 -16.153,119.182c-8.283,47.176 -16.981,94.766 -28.992,141.114c-21.537,81.524 -51.358,160.151 -90.29,235.467c-38.105,73.248 -79.522,144.426 -133.78,206.913c-48.458,55.867 -97.331,111.733 -150.76,162.634c-62.541,59.591 -134.193,109.664 -209.573,152.288c-86.977,49.245 -176.854,91.869 -274.185,117.113c-54.671,14.07 -109.757,25.657 -164.842,36.83c-84.493,17.381 -170.227,19.45 -255.962,16.139c-46.802,-2.069 -93.189,-10.759 -139.991,-15.725c-71.239,-7.863 -139.578,-26.899 -207.089,-49.659c-96.503,-32.279 -188.864,-72.833 -272.528,-130.769c-55.5,-38.486 -109.757,-79.041 -162.771,-121.251c-64.198,-51.315 -116.384,-113.802 -167.328,-178.359c-51.772,-66.212 -95.26,-137.39 -132.536,-211.879c-40.59,-81.524 -72.067,-166.772 -91.947,-255.331c-13.668,-61.246 -20.709,-124.147 -29.407,-186.221c-3.313,-24.002 -3.728,-48.418 -4.142,-72.834c-0.828,-40.969 -3.313,-81.937 0.414,-122.492c5.799,-64.971 12.84,-130.355 25.265,-194.085c10.355,-53.383 26.922,-105.525 45.145,-156.84c30.235,-86.489 71.239,-168.013 119.698,-246.226c62.126,-99.732 137.92,-187.463 223.241,-266.918c58.399,-54.211 122.182,-102.215 191.764,-141.528c55.913,-31.865 113.07,-63.316 172.711,-87.731c63.369,-25.658 129.223,-46.349 195.492,-62.074c62.54,-14.898 126.738,-23.588 190.521,-29.382c61.298,-5.38 123.424,-8.277 184.308,-4.138c111.414,7.449 220.757,27.726 326.372,65.384c79.936,28.14 158.629,60.005 230.696,106.353c17.81,11.588 36.033,22.347 54.257,33.52c38.933,26.071 74.966,50.901 107.686,79.041c41.832,36.003 82.007,73.661 120.525,112.561c28.164,28.554 54.672,59.177 79.108,91.455c30.649,40.555 61.713,81.524 87.391,124.976c46.388,78.627 85.321,161.392 113.485,248.709c21.123,65.799 36.862,132.838 49.287,201.12c17.395,93.524 16.981,187.877 14.91,282.643Z" style="fill:#fff;fill-rule:nonzero;stroke:#000;stroke-width:0.87px;"/><path d="M2368.75,1434.17c-18.333,-13.334 -37.917,-25 -58.75,-33.75c-45.417,-20 -93.333,-25.834 -142.083,-16.25c-27.084,5 -53.75,14.166 -79.167,25c-23.75,10 -32.083,31.25 -23.75,50c10,22.5 27.5,29.166 54.167,20c9.583,-3.334 18.75,-8.75 28.333,-12.084c28.333,-10 35.417,-4.166 31.25,26.667c-0.417,2.5 -1.667,4.583 -2.5,7.083c-15.833,49.167 -30.417,98.334 -47.5,146.667c-24.167,68.333 -60,131.25 -105,187.5c-38.333,47.917 -81.25,92.5 -126.25,134.583c-32.917,30.834 -70.833,57.917 -110,80.834c-46.25,27.083 -95.833,49.583 -145.417,70.833c-32.916,14.167 -67.916,24.167 -102.916,32.083c-40.417,9.167 -81.25,15.417 -122.5,20.834c-32.5,4.583 -65.834,8.75 -98.334,7.916c-37.916,-0.833 -75.833,-5.833 -113.333,-12.083c-42.5,-7.083 -85,-15.417 -125.833,-27.917c-63.334,-19.166 -125,-43.75 -181.25,-80.416c-40.834,-26.25 -82.084,-52.5 -119.167,-83.334c-37.083,-30.833 -72.083,-65.416 -102.5,-102.5c-36.667,-44.583 -71.667,-91.666 -99.583,-141.666c-43.334,-78.75 -77.917,-161.667 -88.75,-252.5c-1.667,-15.417 2.5,-20.834 17.5,-16.25c13.333,4.166 26.666,9.166 40,13.75c25,8.75 46.666,-0.417 56.666,-24.584c6.667,-15.416 -5,-35.416 -26.25,-46.25c-46.666,-23.75 -96.25,-32.5 -149.166,-27.916c-11.25,2.916 -21.667,5 -31.667,7.5c-37.5,8.333 -72.5,23.333 -99.583,50.416c-7.917,7.917 -10.417,25.834 -7.917,37.084c3.333,15 15.417,29.583 34.167,24.166c18.75,-5.416 36.666,-15 55,-23.333c16.666,-7.917 29.166,-2.083 32.5,16.25c2.916,15.417 4.583,31.25 8.75,46.25c27.083,99.167 61.666,195.833 121.25,280.833c38.75,55.417 80.833,109.167 125,160.417c21.666,25 50.833,43.75 76.666,65.417c51.667,42.916 106.25,80 166.667,109.583c56.25,27.917 113.333,51.667 173.75,68.333c77.5,21.667 156.667,34.584 237.5,34.167c30,0 60,-2.083 90,-4.167c29.583,-2.083 59.583,-2.5 87.917,-8.75c75.416,-16.666 150,-37.083 221.25,-68.75c101.666,-45 191.666,-107.5 270.833,-184.583c37.5,-36.667 70.417,-78.333 103.333,-119.167c45.834,-57.083 81.25,-120.833 107.084,-188.75c24.583,-63.75 40,-130.416 59.166,-196.25c5,-16.666 12.5,-20.833 29.167,-12.5c13.333,6.667 25.833,14.167 39.167,20.834c19.166,9.166 36.666,5.416 46.666,-9.167c11.667,-16.25 10.834,-40.833 -4.583,-52.083Z" style="fill:#fff;fill-rule:nonzero;"/><path d="M925.417,1156.67c19.583,32.083 42.5,61.25 82.916,63.75c46.667,2.916 71.667,-30 91.667,-65.417c44.167,-79.583 57.5,-166.667 58.75,-258.75c-4.167,-44.583 -7.5,-87.5 -12.5,-130c-6.667,-55.833 -24.583,-107.5 -58.333,-152.5c-30.834,-41.25 -61.667,-64.167 -100,-45c-24.167,12.083 -46.25,34.583 -61.25,57.5c-38.75,59.583 -53.334,128.333 -58.334,197.917c-3.75,51.25 0.417,103.333 3.334,155c3.75,62.916 20.833,122.916 53.75,177.5Z" style="fill:#fff;fill-rule:nonzero;"/><path d="M1500.83,958.333c5.417,42.5 13.75,85.417 25,126.667c12.084,45.417 31.667,88.333 71.25,117.917c27.084,20.416 56.25,28.333 93.75,0.416c35.834,-26.666 52.084,-66.25 67.084,-105c25,-64.583 32.083,-133.75 33.333,-202.083c0.833,-41.25 -6.667,-82.5 -11.667,-123.75c-7.083,-57.083 -24.583,-111.25 -58.333,-158.75c-20,-28.333 -45,-48.75 -83.333,-50.833c-15.834,6.666 -31.25,11.666 -43.334,20.833c-42.5,31.667 -58.75,80 -72.5,127.5c-14.583,50.417 -26.666,102.083 -22.083,156.25c2.5,30.417 -2.917,61.25 0.833,90.833Z" style="fill:#fff;fill-rule:nonzero;"/></g></svg>